<?xml version="1.0" encoding="utf-8"?>
<!-- Generator: Adobe Illustrator 26.0.1, SVG Export Plug-In . SVG Version: 6.00 Build 0)  -->
<svg version="1.1" id="Layer_1" xmlns="http://www.w3.org/2000/svg" xmlns:xlink="http://www.w3.org/1999/xlink" x="0px" y="0px"
	 viewBox="0 0 64.1 56.9" style="enable-background:new 0 0 64.1 56.9;" xml:space="preserve">
<style type="text/css">
	.st0{fill:none;stroke:#1D1D1B;stroke-width:0.7;stroke-miterlimit:10;}
	.st1{fill:none;stroke:#1D1D1B;stroke-width:0.4757;stroke-miterlimit:10;}
	.st2{fill:none;stroke:#1D1D1B;stroke-width:0.5;stroke-miterlimit:10;}
	.st3{fill:none;stroke:#1D1D1B;stroke-width:0.47;stroke-miterlimit:10;}
	.st4{fill:none;stroke:#1D1D1B;stroke-width:0.4;stroke-miterlimit:10;}
	.st5{fill:none;stroke:#1D1D1B;stroke-width:0.4739;stroke-miterlimit:10;}
</style>
<ellipse class="st0" cx="29.8" cy="28.9" rx="14.9" ry="14.6"/>
<ellipse class="st0" cx="29.9" cy="28.7" rx="17.4" ry="17.1"/>
<ellipse class="st1" cx="29.9" cy="21.3" rx="4.1" ry="4.1"/>
<ellipse class="st2" cx="29.9" cy="21.3" rx="4.9" ry="4.7"/>
<ellipse class="st3" cx="29.9" cy="35.9" rx="4.2" ry="3.9"/>
<ellipse class="st2" cx="29.9" cy="35.9" rx="4.9" ry="4.7"/>
<polygon class="st2" points="36.5,40.9 37.9,40.2 36.8,38.7 35.6,38.5 35.5,39.5 "/>
<rect x="29.1" y="41.2" class="st2" width="1.6" height="1.6"/>
<rect x="29.1" y="15" class="st2" width="1.6" height="1.1"/>
<rect x="42.2" y="28" class="st2" width="1.7" height="1.4"/>
<rect x="15.8" y="28.1" class="st2" width="1.7" height="1.4"/>
<polygon class="st2" points="17.2,22.5 17.9,21.3 19.5,22 18.8,23.5 "/>
<polygon class="st2" points="42.1,22.4 41.3,21.3 39.8,22.1 40.6,23.5 "/>
<polygon class="st2" points="36.2,16.6 35.5,17.5 35.6,18.3 36.5,18.4 37.5,17.3 "/>
<polygon class="st2" points="17.2,34.9 18,36.2 19.5,35.5 19.9,34.4 18.8,34 "/>
<polygon class="st2" points="22.3,17.1 23.3,16.6 24.2,17.5 24.2,18.5 23,18.3 "/>
<polygon class="st2" points="21.9,40.2 23.3,41 24.2,39.6 23.9,38.3 22.8,38.6 "/>
<polygon class="st2" points="41.5,36.4 42.4,35 40.8,34.2 39.6,34.6 39.9,35.5 "/>
<path class="st4" d="M29.8,16h0.3c0.1,4.2,0.1,8.5,0.2,12.7l0,0l10.5-7.1h0.4L41,22c-3.4,2.5-6.8,4.9-10.2,7.4c0,0.1,0,0.2-0.1,0.4
	c-0.1,0.2-0.3,0.3-0.4,0.3c0,1.3,0,2.6-0.1,3.8h-0.6c0-1.3,0-2.5,0-3.8c-0.1,0-0.3-0.2-0.4-0.4c-0.1-0.2,0-0.4,0-0.5l-7.1-4.6
	l-0.4-0.6l0.7,0.1c2.4,1.5,4.7,3,7.1,4.5l0,0C29.6,24.5,29.7,20.3,29.8,16z"/>
<line class="st2" x1="45.5" y1="19.9" x2="46.6" y2="19.4"/>
<line class="st2" x1="48" y1="28.7" x2="49.7" y2="28.7"/>
<line class="st2" x1="45.5" y1="37.5" x2="46.6" y2="38.1"/>
<path class="st2" d="M47.8,39.6l-0.7,1.2c0.3,0.2,0.6,0.4,1.1,0.7c0.7,0.4,0.8,0.4,0.9,0.4c0.4,0,0.7-0.5,1.2-1.2
	c0.6-1,1-1.6,0.8-2.1c-0.1-0.2-0.4-0.4-1-0.8c-0.3-0.2-0.7-0.4-0.7-0.4l-0.7,1.2l-1-0.6l-0.9,1L47.8,39.6z"/>
<path class="st2" d="M48.8,19.1l0.6,1.3c0.2-0.2,0.7-0.4,1.2-0.8c0.7-0.5,0.9-0.6,0.9-0.7c0.2-0.5,0-1-0.4-1.8
	c-0.5-1.1-0.9-1.8-1.4-1.9c-0.2,0-0.6,0.2-1.4,0.6c-0.4,0.2-0.6,0.4-0.9,0.5l0.6,1.3l-1.2,0.8l0.6,1.4L48.8,19.1z"/>
<polygon class="st2" points="52.3,26.3 53,27 53,30.5 52.3,31.2 50.5,31.2 50.3,30.9 50.2,26.7 50.6,26.3 "/>
<polyline class="st5" points="50.3,27 52.4,27 52.4,30.5 50.2,30.6 "/>
<line class="st2" x1="50.3" y1="27.9" x2="52.5" y2="27.9"/>
<line class="st2" x1="50.3" y1="28.7" x2="52.6" y2="28.7"/>
<line class="st2" x1="50.3" y1="29.7" x2="52.5" y2="29.7"/>
</svg>
