<?xml version="1.0" encoding="utf-8"?>
<!-- Generator: Adobe Illustrator 26.0.1, SVG Export Plug-In . SVG Version: 6.00 Build 0)  -->
<svg version="1.1" id="Layer_1" xmlns="http://www.w3.org/2000/svg" xmlns:xlink="http://www.w3.org/1999/xlink" x="0px" y="0px"
	 viewBox="0 0 57.5 65.2" style="enable-background:new 0 0 57.5 65.2;" xml:space="preserve">
<style type="text/css">
	.st0{fill:none;stroke:#1D1D1B;stroke-width:0.7;stroke-miterlimit:10;}
	.st1{fill:none;stroke:#1D1D1B;stroke-width:0.5;stroke-miterlimit:10;}
	.st2{fill:none;stroke:#1D1D1B;stroke-width:0.5063;stroke-miterlimit:10;}
	.st3{fill:none;stroke:#1D1D1B;stroke-width:0.5085;stroke-miterlimit:10;}
</style>
<polygon class="st0" points="15.8,12.2 5.7,25 28.6,55.3 51.3,25.1 41.3,12.2 "/>
<polygon class="st1" points="15.7,12.7 11.7,25 19.7,24.9 "/>
<polygon class="st2" points="28.5,13.1 19.8,25.2 28.5,25 "/>
<polygon class="st3" points="28.9,13.1 37.5,25.2 28.9,25 "/>
<line class="st1" x1="46.5" y1="25" x2="51.2" y2="25.1"/>
<polygon class="st1" points="41.7,13.1 46.5,25 37.4,24.8 "/>
<line class="st1" x1="5.7" y1="24.9" x2="11.7" y2="25"/>
<polygon class="st1" points="37.5,25.2 46.2,25 29.2,52 "/>
<polygon class="st1" points="20,25.3 11.6,25.2 28.1,52.6 "/>
<line class="st1" x1="28.9" y1="24.6" x2="28.6" y2="55.3"/>
</svg>
